<svg xmlns="http://www.w3.org/2000/svg" viewBox="0 0 466.8 427.57"><defs><style>.cls-1{fill:#ca7d2e;}.cls-2{fill:#fbea78;}.cls-3{fill:#eb9d41;}.cls-13,.cls-4{fill:none;stroke:#000;stroke-miterlimit:10;stroke-width:9px;}.cls-5{fill:#aa5c40;}.cls-6{fill:#914733;}.cls-7{fill:#fec809;}.cls-8{fill:#f5eb12;}.cls-9{fill:#eaf0b8;}.cls-10{fill:#4fb348;}.cls-11{fill:#e41e25;}.cls-12{fill:#b72027;}.cls-13{stroke-linecap:round;}.cls-14{fill:#be6328;}.cls-15{fill:#fef07d;}</style></defs><g id="Layer_2" data-name="Layer 2"><g id="Layer_1-2" data-name="Layer 1"><path class="cls-1" d="M463.94,391.93a35,35,0,0,1-35,35H41.18A35.05,35.05,0,0,1,8.32,379.75a35,35,0,0,0,34.29,27.8H430.33a35,35,0,0,0,32.86-22.86A35.28,35.28,0,0,1,463.94,391.93Z"/><path class="cls-2" d="M463.19,384.69a34.84,34.84,0,0,1-3.54,7,35,35,0,0,0-34.21-27.43H37.72A35,35,0,0,0,8.4,380.11c0-.12-.05-.24-.08-.36a35,35,0,0,1,32.86-22.86H428.9A35.05,35.05,0,0,1,463.19,384.69Z"/><path class="cls-3" d="M459.65,391.69a35,35,0,0,1-29.32,15.86H42.61A35,35,0,0,1,8.4,380.11a35,35,0,0,1,29.32-15.85H425.44A35,35,0,0,1,459.65,391.69Z"/><rect class="cls-4" x="4.5" y="352.99" width="457.8" height="70.08" rx="35.04"/><path class="cls-5" d="M449.21,328.05A35.09,35.09,0,0,1,417,349.37H53.13A35,35,0,0,1,22.92,332.1c6.26-3.43,15.44-14.19,28.1-14.42,17.54-.32,21.64,22.06,38.95,20,16.68-2,21-18.35,37.27-18.36s19.53,16.31,36.16,16.13c15.76-.17,18-14.87,33.94-15.57,17.89-.79,22.66,17.36,40,16.13,15.46-1.1,17.42-15.84,32.27-16.13,16.29-.33,19.61,17.32,36.16,17.8,17.12.49,20.72-18.18,38.38-18.36s21.87,18.27,38.95,17.24c15.13-.92,16.22-16.33,32.82-18.35C430.35,316.48,442.39,326.36,449.21,328.05Z"/><path class="cls-6" d="M452,314.33a35,35,0,0,1-2.78,13.72c-6.82-1.69-18.86-11.57-33.24-9.81-16.6,2-17.69,17.43-32.82,18.35-17.08,1-21.35-17.42-38.95-17.24s-21.26,18.85-38.38,18.36c-16.55-.48-19.87-18.13-36.16-17.8-14.85.29-16.81,15-32.27,16.13-17.39,1.23-22.16-16.92-40-16.13-16,.7-18.18,15.4-33.94,15.57-16.63.18-19.87-16.15-36.16-16.13S106.65,335.75,90,337.71c-17.31,2-21.41-20.35-38.95-20-12.66.23-21.84,11-28.1,14.42a34.88,34.88,0,0,1-4.83-17.77c0-.32,0-.64,0-.95a35,35,0,0,1,35-34.09H417a35,35,0,0,1,35,34.55C452,314,452,314.17,452,314.33Z"/><rect class="cls-4" x="16.45" y="282.4" width="433.9" height="70.08" rx="35.04"/><path class="cls-7" d="M460.37,225.31a12.63,12.63,0,0,1-1.7,6.23,12.58,12.58,0,0,0-10.93-6.47L22.37,221.94a12.65,12.65,0,0,0-9,3.64,13.12,13.12,0,0,0-2.06,2.67A12.48,12.48,0,0,1,9.73,222a12.63,12.63,0,0,1,12.73-12.55l425.37,3.13A12.63,12.63,0,0,1,460.37,225.31Z"/><path class="cls-8" d="M458.67,231.54a12.67,12.67,0,0,1-11,6.31L22.28,234.72a12.6,12.6,0,0,1-10.94-6.47,13.12,13.12,0,0,1,2.06-2.67,12.65,12.65,0,0,1,9-3.64l425.37,3.13A12.58,12.58,0,0,1,458.67,231.54Z"/><rect class="cls-4" x="8.07" y="214.11" width="450.65" height="25.26" rx="12.63" transform="matrix(1, 0.01, -0.01, 1, 1.67, -1.71)"/><path class="cls-9" d="M452.68,304.4c-4.94,4.8-19.33-11.36-37.41-9.16-16.59,2-17.69,17.44-32.82,18.35-17.08,1-21.35-17.42-38.95-17.24s-21.26,18.85-38.38,18.36c-16.55-.48-19.87-18.13-36.16-17.8-14.85.29-16.81,15-32.27,16.13-17.39,1.23-22.16-16.92-40.05-16.13-16,.7-18.18,15.4-33.94,15.57-16.63.18-19.87-16.15-36.16-16.13S106,312.75,89.27,314.71c-17.3,2-21.4-20.34-38.95-20-16.72.3-27.36,19-33.26,14.88-3.16-2.2-2.29-9.14-1.76-12.35a4.94,4.94,0,0,0,1.76,2.66C23,304,33.6,285.29,50.32,285c17.55-.31,21.65,22.07,38.95,20,16.68-2,21-18.35,37.27-18.36S146.07,303,162.7,302.79c15.76-.17,18-14.87,33.94-15.57,17.89-.79,22.66,17.36,40.05,16.13,15.46-1.1,17.42-15.84,32.27-16.13,16.29-.33,19.61,17.32,36.16,17.8,17.12.49,20.72-18.18,38.38-18.36s21.87,18.27,38.95,17.24c15.13-.91,16.23-16.33,32.82-18.35,18.08-2.2,32.47,14,37.41,9.16l0,0C453.9,298.29,454.68,302.46,452.68,304.4Z"/><path class="cls-10" d="M452.7,294.69l0,0c-4.94,4.81-19.33-11.36-37.41-9.16-16.59,2-17.69,17.44-32.82,18.35-17.08,1-21.35-17.42-38.95-17.24S322.24,305.51,305.12,305c-16.55-.48-19.87-18.13-36.16-17.8-14.85.29-16.81,15-32.27,16.13-17.39,1.23-22.16-16.92-40.05-16.13-16,.7-18.18,15.4-33.94,15.57-16.63.18-19.87-16.15-36.16-16.13S106,303.06,89.27,305c-17.3,2-21.4-20.34-38.95-20-16.72.3-27.36,19-33.26,14.88a4.94,4.94,0,0,1-1.76-2.66c0-.33.1-.63.14-.87a24.33,24.33,0,0,1,6.69-12.88,25.07,25.07,0,0,1,17-7.06H429.22a25.48,25.48,0,0,1,17,7.06,24,24,0,0,1,5.9,9.72C452.35,293.67,452.53,294.17,452.7,294.69Z"/><path class="cls-4" d="M451.94,295.86c1.44,3.88,2.79,9,.5,11.22-4.94,4.81-19.32-11.36-37.4-9.16-16.6,2-17.7,17.44-32.82,18.35-17.08,1-21.35-17.42-39-17.24S322,317.88,304.89,317.39c-16.55-.48-19.87-18.13-36.16-17.8-14.85.29-16.81,15-32.27,16.13-17.39,1.23-22.16-16.92-40.05-16.13-16,.7-18.18,15.4-33.94,15.57-16.63.18-19.87-16.15-36.16-16.13S105.72,315.43,89,317.39c-17.31,2-21.41-20.34-38.95-20-16.72.3-27.37,19-33.26,14.88-3.5-2.43-2.08-10.62-1.63-13.22a24.33,24.33,0,0,1,6.69-12.88,25.07,25.07,0,0,1,17-7.06H429a25.48,25.48,0,0,1,17,7.06A24.28,24.28,0,0,1,451.94,295.86Z"/><rect class="cls-11" x="41.16" y="237.93" width="387.76" height="35.11" rx="17.56"/><path class="cls-12" d="M235,255.49a17.47,17.47,0,0,1-2.93,9.71,17.58,17.58,0,0,0-16.79-12.4H56.55a17.5,17.5,0,0,0-12.42,5.14,17.3,17.3,0,0,0-2.2,2.7,17.56,17.56,0,0,1,16.78-22.71H217.48A17.56,17.56,0,0,1,235,255.49Z"/><path class="cls-11" d="M232.11,265.2a18,18,0,0,1-2.21,2.7A17.5,17.5,0,0,1,217.48,273H58.71a17.55,17.55,0,0,1-16.78-12.4,17.3,17.3,0,0,1,2.2-2.7,17.5,17.5,0,0,1,12.42-5.14H215.32A17.58,17.58,0,0,1,232.11,265.2Z"/><path class="cls-12" d="M426.13,255.49a17.47,17.47,0,0,1-2.93,9.71,17.55,17.55,0,0,0-16.78-12.4H251.7a17.5,17.5,0,0,0-14.63,7.85,17.56,17.56,0,0,1,16.79-22.72H408.58A17.56,17.56,0,0,1,426.13,255.49Z"/><path class="cls-11" d="M423.2,265.2a18,18,0,0,1-2.21,2.7A17.48,17.48,0,0,1,408.58,273H253.86a17.58,17.58,0,0,1-16.79-12.39,17.5,17.5,0,0,1,14.63-7.85H406.42A17.55,17.55,0,0,1,423.2,265.2Z"/><rect class="cls-4" x="39.52" y="241.04" width="387.76" height="35.11" rx="17.56"/><rect class="cls-4" x="40.65" y="241.04" width="193.88" height="35.11" rx="17.56"/><rect class="cls-4" x="234.67" y="241.04" width="189.83" height="35.11" rx="17.56"/><line class="cls-13" x1="405.98" y1="145.27" x2="400.65" y2="150.57"/><path class="cls-14" d="M449,200.44A22.33,22.33,0,0,1,434.34,210H36.51s-26.46-2.9-18.28-43.26c7.73,9.87,29.58,19.88,84.27,22.82C200.78,194.8,381.88,201.93,449,200.44Z"/><path class="cls-3" d="M452.67,190.15a28.75,28.75,0,0,1-4.44,11.12c-67.13,1.49-248.23-5.64-346.51-10.93-54.69-2.94-76.54-13-84.27-22.82.65-3.18,1.51-6.6,2.62-10.26l.09-.32a180.2,180.2,0,0,1,7.47-19.81c.94-2.14,1.93-4.28,2.95-6.42l0,0C62.82,63.65,136.15,1.28,234.65,2.24c101.65-1,176.5,65.47,207,134.89C452.85,162.55,454.75,179.22,452.67,190.15Z"/><path class="cls-15" d="M451.68,189.51S431.49,82.76,316.26,39.77C210.94.48,75.65,40.51,29.61,130,61.83,63,135.16.64,233.66,1.6c101.65-1,176.5,65.47,207,134.89C451.86,161.91,453.76,178.58,451.68,189.51Z"/><path class="cls-4" d="M451.82,192.42c-3.59,18.93-19.11,20.63-19.11,20.63H34.88s-30.8-3.38-15.66-53.52l.09-.32a180.2,180.2,0,0,1,7.47-19.81c.94-2.14,1.93-4.28,2.95-6.42,0,0,0,0,0,0C62,65.92,135.3,3.55,233.8,4.51c101.65-1,176.5,65.47,207,134.89C452,164.82,453.9,181.49,451.82,192.42Z"/><line class="cls-13" x1="335.3" y1="136.35" x2="329.98" y2="141.65"/><line class="cls-13" x1="176.76" y1="175.94" x2="171.44" y2="181.24"/><line class="cls-13" x1="176.76" y1="175.94" x2="171.44" y2="181.24"/><line class="cls-13" x1="176.76" y1="175.94" x2="171.44" y2="181.24"/><line class="cls-13" x1="111.33" y1="146.93" x2="106" y2="152.23"/><line class="cls-13" x1="218.43" y1="99.32" x2="213.1" y2="104.62"/><line class="cls-13" x1="113.99" y1="76.52" x2="108.67" y2="81.82"/><line class="cls-13" x1="332.64" y1="76.96" x2="327.31" y2="82.26"/><line class="cls-13" x1="167.32" y1="101.97" x2="161.99" y2="107.27"/><line class="cls-13" x1="265.51" y1="144.28" x2="260.18" y2="149.58"/><line class="cls-13" x1="275.34" y1="46.96" x2="270.01" y2="52.26"/><line class="cls-13" x1="189.36" y1="44.31" x2="184.04" y2="49.61"/></g></g></svg>