<?xml version="1.0" encoding="utf-8"?>
<!-- Generator: Adobe Illustrator 24.2.3, SVG Export Plug-In . SVG Version: 6.00 Build 0)  -->
<svg version="1.1" id="Glyph" xmlns="http://www.w3.org/2000/svg" xmlns:xlink="http://www.w3.org/1999/xlink" x="0px" y="0px"
	 viewBox="0 0 11.3 11.3" style="enable-background:new 0 0 11.3 11.3;" xml:space="preserve">
<style type="text/css">
	.st0{fill:#505050;}
</style>
<path id="XMLID_223_" class="st0" d="M10.5,9.3L8.4,7.1c0.4-0.7,0.7-1.5,0.7-2.3c0-2.3-1.9-4.2-4.2-4.2s-4.1,2-4.1,4.3S2.6,9,4.9,9
	c0.8,0,1.6-0.2,2.3-0.7l2.1,2.1c0.3,0.3,0.8,0.3,1.2,0C10.9,10.1,10.9,9.6,10.5,9.3z M2,4.9C2,3.3,3.3,2,4.9,2s2.9,1.3,2.9,2.9
	S6.6,7.8,4.9,7.8S2,6.5,2,4.9z"/>
</svg>
